<svg width="20" height="21" viewBox="0 0 20 21" fill="none" xmlns="http://www.w3.org/2000/svg">
<path d="M14.5843 11.9555L12.0843 10.7055C12.0105 10.6687 11.9283 10.6522 11.846 10.6574C11.7637 10.6626 11.6842 10.6894 11.6156 10.7352L10.3906 11.5516C9.77043 11.2341 9.26588 10.7295 8.9484 10.1094L9.76559 8.88516C9.81133 8.81654 9.83817 8.73707 9.84338 8.65477C9.84859 8.57247 9.832 8.49025 9.79528 8.41641L8.54528 5.91641C8.50641 5.83819 8.44647 5.77239 8.3722 5.72642C8.29794 5.68046 8.2123 5.65615 8.12496 5.65625C7.3376 5.65625 6.58249 5.96903 6.02574 6.52578C5.46899 7.08253 5.15621 7.83764 5.15621 8.625C5.15828 10.4063 5.86681 12.114 7.12637 13.3736C8.38594 14.6332 10.0937 15.3417 11.875 15.3438C12.6623 15.3438 13.4174 15.031 13.9742 14.4742C14.5309 13.9175 14.8437 13.1624 14.8437 12.375C14.8437 12.2879 14.8195 12.2025 14.7737 12.1284C14.7279 12.0543 14.6623 11.9944 14.5843 11.9555ZM11.875 14.4062C10.3423 14.4044 8.87285 13.7947 7.78906 12.7109C6.70527 11.6271 6.09557 10.1577 6.09371 8.625C6.09376 8.13476 6.2711 7.66108 6.59302 7.29135C6.91494 6.92162 7.35971 6.68078 7.84528 6.61328L8.83434 8.59141L8.02262 9.80859C7.97997 9.87279 7.95381 9.94651 7.94645 10.0232C7.93909 10.1 7.95076 10.1773 7.98043 10.2484C8.41147 11.2732 9.22672 12.0885 10.2515 12.5195C10.3227 12.5492 10.4 12.5609 10.4767 12.5535C10.5535 12.5462 10.6272 12.52 10.6914 12.4773L11.9086 11.6656L13.8867 12.6547C13.8192 13.1403 13.5783 13.585 13.2086 13.9069C12.8389 14.2289 12.3652 14.4062 11.875 14.4062ZM9.99996 2.53125C8.61855 2.53096 7.26078 2.88979 6.05988 3.57253C4.85897 4.25527 3.85618 5.23847 3.14987 6.42567C2.44357 7.61287 2.05803 8.96329 2.03106 10.3444C2.00409 11.7256 2.33663 13.09 2.99606 14.3039L2.08825 17.0281C2.02398 17.2208 2.01465 17.4276 2.06131 17.6254C2.10797 17.8231 2.20877 18.0039 2.35242 18.1475C2.49607 18.2912 2.67688 18.392 2.8746 18.4387C3.07232 18.4853 3.27912 18.476 3.47184 18.4117L6.19606 17.5039C7.26245 18.0826 8.44691 18.4102 9.65912 18.4616C10.8713 18.513 12.0793 18.287 13.1908 17.8007C14.3024 17.3144 15.2883 16.5806 16.0732 15.6555C16.8582 14.7303 17.4215 13.6381 17.7203 12.4622C18.019 11.2862 18.0453 10.0576 17.7971 8.86996C17.549 7.68232 17.0329 6.56703 16.2882 5.60914C15.5435 4.65124 14.5899 3.87604 13.5002 3.34264C12.4104 2.80924 11.2133 2.53172 9.99996 2.53125ZM9.99996 17.5312C8.76397 17.5315 7.54974 17.206 6.47965 16.5875C6.40831 16.5465 6.32756 16.5247 6.24528 16.5242C6.19484 16.5245 6.14476 16.5327 6.09684 16.5484L3.17575 17.5219C3.14821 17.5311 3.11867 17.5324 3.09043 17.5257C3.06218 17.5191 3.03635 17.5047 3.01583 17.4841C2.99531 17.4636 2.98091 17.4378 2.97424 17.4095C2.96758 17.3813 2.96891 17.3517 2.97809 17.3242L3.95153 14.4062C3.97259 14.3432 3.98 14.2764 3.97326 14.2103C3.96653 14.1441 3.9458 14.0802 3.91246 14.0227C3.13688 12.6829 2.82513 11.1246 3.02558 9.58957C3.22603 8.05454 3.92747 6.62856 5.02108 5.53288C6.11469 4.43719 7.53933 3.73304 9.07398 3.52968C10.6086 3.32632 12.1675 3.63511 13.5087 4.40815C14.85 5.18119 15.8986 6.37525 16.4919 7.8051C17.0853 9.23495 17.1902 10.8206 16.7903 12.3162C16.3904 13.8117 15.5082 15.1335 14.2804 16.0764C13.0527 17.0193 11.548 17.5307 9.99996 17.5312Z" fill="#FFF6E6"/>
</svg>
